<svg width="1101" height="543" viewBox="0 0 1101 543" fill="none" xmlns="http://www.w3.org/2000/svg">
<path fill-rule="evenodd" clip-rule="evenodd" d="M49.0729 533.665C28.6265 517.091 0 487.47 0 487.47C0 487.47 436.749 554.453 696.836 468.994C956.922 383.534 988.82 302.694 988.82 207.996C988.82 182.589 959.376 83.2712 817.064 90.2003C623.226 108.678 404.852 399.702 601.143 441.277C323.881 499.02 163.007 341.959 181.57 207.996C190.211 145.634 223.282 7.05053 424.481 0.121384C553.99 -4.33896 640.402 115.607 640.402 115.607C663.957 65.7174 763.084 0.121384 856.323 0.121384C1057.52 7.05053 1090.59 145.634 1099.23 207.996C1121.32 367.366 934.839 473.613 623.226 533.665C534.554 550.753 234.402 540.037 105.828 535.447C76.3589 534.395 55.9034 533.665 49.0729 533.665ZM434.295 71.7226C345.116 71.7226 292.551 148.794 279.716 207.996C255.179 321.172 429.388 374.295 429.388 374.295C429.388 374.295 453.925 198.757 576.607 145.634C581.524 143.504 525.08 71.7226 434.295 71.7226Z" fill="#F2F2F2"/>
</svg>
