<svg width="1223" height="292" viewBox="0 0 1223 292" fill="none" xmlns="http://www.w3.org/2000/svg">
<path fill-rule="evenodd" clip-rule="evenodd" d="M165.332 201H39.5795V194.394C59.6197 194.394 66.1328 192.507 66.1328 182.599V122.676C66.1328 122.676 66.1345 122.207 66.1362 121.967C66.1762 116.369 66.229 108.993 45.0905 108.993H10.0201L0 99.5562C0 99.5562 89.1791 113.24 142.286 95.7818C195.392 78.3241 201.905 61.8099 201.905 42.4648C201.905 37.2747 195.893 16.9859 166.835 18.4014C127.256 22.1761 82.666 81.6269 122.746 90.1198C66.1328 101.916 33.2842 69.8311 37.0744 42.4648C38.8389 29.7254 45.5915 1.41549 86.674 0C105.712 0 125.953 13.4 130.763 23.5916C135.572 13.4 155.813 0 174.851 0C215.934 1.41549 222.686 29.7254 224.451 42.4648C228.96 75.0212 190.883 96.7255 127.256 108.993C101.242 114.008 100.702 115.127 100.702 122.676V192.035H137.276C211.425 192.035 211.425 163.725 211.425 149.31C211.425 149.057 211.425 148.798 211.426 148.535C211.443 140.135 211.471 126.653 194.39 117.796C183.607 112.204 158.318 114.183 147.296 132.113C145.292 108.049 173.849 101.916 187.376 101.916C206.915 101.916 249 109.465 249 149.57C247.998 182.127 209.922 201 165.332 201ZM57.1147 42.4648C59.7354 30.371 70.4687 14.6268 88.6781 14.6268C107.215 14.6268 118.74 29.2905 117.736 29.7254C92.6861 40.5775 87.676 76.4367 87.676 76.4367C87.676 76.4367 52.1046 65.5846 57.1147 42.4648Z" fill="black"/>
<path fill-rule="evenodd" clip-rule="evenodd" d="M326.5 167.25H260V159.25H265.5C276.5 159.25 283.212 151.799 289 141.774C294.788 131.75 354.448 35.6577 357.5 33.75H379.5L461.5 146.25C463 148.75 470.5 159.25 479.5 159.25H486.5V167.25H405.5V159.25H413C423 159.25 428 157.25 427.5 152.25C427.282 150.07 426.063 148.254 423.148 143.912C422.738 143.3 422.293 142.638 421.813 141.918C405.136 116.895 361 57.75 361 57.75C361 57.75 304.41 144.905 303 151.25C302 155.75 306.5 159.25 316 159.25H326.5V167.25Z" fill="black"/>
<path d="M660 167.25H497.5V159.25C519.5 159.25 522.5 160.25 522.5 132.75V58.25C522.5 47.75 521.5 43.25 507 43.25H499L501.5 33.75H582.5V43.25H575C559.5 43.25 554.5 45.25 554.5 57.75V132.75C553.5 162.75 570.5 159.25 580 159.25H608C645.5 158.25 660 144.75 660 132.75H668C666 154.25 660 167.25 660 167.25Z" fill="black"/>
<path fill-rule="evenodd" clip-rule="evenodd" d="M745.5 167.25H679V159.25H684.5C695.5 159.25 702.212 151.799 708 141.774C713.788 131.75 773.448 35.6577 776.5 33.75H798.5L880.5 146.25C882 148.75 889.5 159.25 898.5 159.25H905.5V167.25H824.5V159.25H832C842 159.25 847 157.25 846.5 152.25C846.282 150.07 845.063 148.254 842.148 143.912C841.738 143.3 841.293 142.638 840.813 141.918C824.136 116.895 780 57.75 780 57.75C780 57.75 723.41 144.905 722 151.25C721 155.75 725.5 159.25 735 159.25H745.5V167.25Z" fill="black"/>
<path fill-rule="evenodd" clip-rule="evenodd" d="M1001.5 167.5H916.5V159.5H922.5C936.5 159.5 943 154 943 142.5V58.5C943 44.5 937 42 926.5 42H918.5V33.5H1023C1093 33.5 1094.5 57.5 1095 66.5C1096 84.5 1072 100.5 1037.5 105C1052.58 106.257 1064.02 118.405 1075.95 131.088C1083 138.585 1090.24 146.269 1098.5 152C1106.26 157.383 1112 159.5 1124 159.5H1127L1125 167.5H1100C1066.32 167.5 1054.86 151.002 1043.91 135.237C1033.89 120.812 1024.3 107 998.5 107H973.5V134.5C973.5 159 981 159.5 994 159.5H1001.5V167.5ZM973.5 98.5V48.5C973.5 43 976.5 42 993 42H1021.5C1042.5 42 1061 53 1061 67.5C1061 87.5 1036.5 98.5 1022 98.5H973.5Z" fill="black"/>
<path d="M1223 201H1138V193H1144C1157 193 1164 189.5 1164 168V24.5C1164 11.5 1157 6.5 1147 6.5H1139.5V0H1223V8.5H1213.5C1200.5 8.5 1196.5 14.5 1196.5 25.5V176C1196.5 190 1202 193 1211.5 193H1223V201Z" fill="black"/>
<path d="M998.75 275V232H974.75V227H1028.75V232H1004.75V275H998.75ZM1037.69 275V227H1084.81V232H1043.69V248H1083.09V253H1043.69V270H1085.69V275H1037.69ZM1091.69 251.625V250.375C1091.69 246.125 1091.9 242.562 1092.31 239.688C1092.73 236.792 1093.45 234.438 1094.47 232.625C1095.49 230.812 1096.88 229.427 1098.62 228.469C1100.4 227.51 1102.61 226.865 1105.28 226.531C1107.95 226.177 1111.16 226 1114.91 226H1127.5C1131.79 226 1135.41 226.208 1138.34 226.625C1141.3 227.021 1143.68 227.823 1145.47 229.031C1147.28 230.219 1148.59 231.979 1149.41 234.312C1150.22 236.625 1150.62 239.698 1150.62 243.531H1144.62C1144.62 240.51 1144.35 238.167 1143.81 236.5C1143.27 234.812 1142.35 233.594 1141.06 232.844C1139.79 232.094 1138.05 231.635 1135.84 231.469C1133.64 231.281 1130.85 231.188 1127.5 231.188H1114.91C1111.93 231.188 1109.42 231.281 1107.38 231.469C1105.33 231.635 1103.67 232.042 1102.38 232.688C1101.1 233.312 1100.12 234.312 1099.44 235.688C1098.77 237.062 1098.31 238.938 1098.06 241.312C1097.81 243.688 1097.69 246.708 1097.69 250.375V251.625C1097.69 255.167 1097.81 258.104 1098.06 260.438C1098.31 262.771 1098.77 264.635 1099.44 266.031C1100.12 267.427 1101.1 268.469 1102.38 269.156C1103.67 269.844 1105.33 270.292 1107.38 270.5C1109.42 270.708 1111.93 270.812 1114.91 270.812H1127.5C1130.85 270.812 1133.64 270.74 1135.84 270.594C1138.05 270.448 1139.79 270.021 1141.06 269.312C1142.35 268.604 1143.27 267.427 1143.81 265.781C1144.35 264.115 1144.62 261.781 1144.62 258.781H1150.62C1150.62 262.615 1150.22 265.677 1149.41 267.969C1148.59 270.26 1147.28 271.99 1145.47 273.156C1143.68 274.302 1141.3 275.062 1138.34 275.438C1135.41 275.812 1131.79 276 1127.5 276H1114.91C1110.22 276 1106.36 275.677 1103.34 275.031C1100.32 274.406 1097.96 273.24 1096.25 271.531C1094.56 269.823 1093.38 267.365 1092.69 264.156C1092.02 260.948 1091.69 256.771 1091.69 251.625ZM1160.88 275V227H1166.88V248H1210.88V227H1216.88V275H1210.88V253H1166.88V275H1160.88Z" fill="black"/>
<rect x="259" y="197" width="840" height="4" fill="black"/>
</svg>
