<svg width="249" height="201" viewBox="0 0 249 201" fill="none" xmlns="http://www.w3.org/2000/svg">
<path fill-rule="evenodd" clip-rule="evenodd" d="M165.332 201H39.5795V194.394C59.6197 194.394 66.1328 192.507 66.1328 182.599V122.676C66.1328 122.676 66.1345 122.207 66.1362 121.967C66.1762 116.369 66.229 108.993 45.0905 108.993H10.0201L0 99.5562C0 99.5562 89.1791 113.24 142.286 95.7818C195.392 78.324 201.905 61.8099 201.905 42.4648C201.905 37.2747 195.893 16.9859 166.835 18.4014C127.256 22.1761 82.666 81.6269 122.746 90.1198C66.1328 101.916 33.2842 69.8311 37.0744 42.4648C38.8389 29.7254 45.5915 1.41549 86.674 0C105.712 0 125.953 13.4 130.763 23.5916C135.572 13.4 155.813 0 174.851 0C215.934 1.41549 222.686 29.7254 224.451 42.4648C228.96 75.0212 190.883 96.7255 127.256 108.993C101.242 114.008 100.702 115.127 100.702 122.676V192.035H137.276C211.425 192.035 211.425 163.725 211.425 149.31C211.425 149.057 211.425 148.798 211.426 148.535C211.443 140.135 211.471 126.653 194.39 117.796C183.607 112.204 158.318 114.183 147.296 132.113C145.292 108.049 173.849 101.916 187.376 101.916C206.915 101.916 249 109.465 249 149.57C247.998 182.127 209.922 201 165.332 201ZM57.1147 42.4648C59.7354 30.371 70.4687 14.6268 88.6781 14.6268C107.215 14.6268 118.74 29.2905 117.736 29.7254C92.6861 40.5775 87.6761 76.4367 87.6761 76.4367C87.6761 76.4367 52.1046 65.5846 57.1147 42.4648Z" fill="white"/>
</svg>
