<svg width="35" height="35" viewBox="0 0 35 35" fill="none" xmlns="http://www.w3.org/2000/svg">
<g clip-path="url(#clip0_402_521)">
<path d="M16.042 2.9165C23.287 2.9165 29.167 8.7965 29.167 16.0415C29.167 23.2865 23.287 29.1665 16.042 29.1665C8.79699 29.1665 2.91699 23.2865 2.91699 16.0415C2.91699 8.7965 8.79699 2.9165 16.042 2.9165ZM16.042 26.2498C21.6814 26.2498 26.2503 21.6809 26.2503 16.0415C26.2503 10.4007 21.6814 5.83317 16.042 5.83317C10.4012 5.83317 5.83366 10.4007 5.83366 16.0415C5.83366 21.6809 10.4012 26.2498 16.042 26.2498ZM28.416 26.3534L32.5416 30.4775L30.478 32.5411L26.3539 28.4155L28.416 26.3534Z" fill="#1F2528"/>
</g>
<defs>
<clipPath id="clip0_402_521">
<rect width="35" height="35" fill="white"/>
</clipPath>
</defs>
</svg>
