<svg width="35" height="35" viewBox="0 0 35 35" fill="none" xmlns="http://www.w3.org/2000/svg">
<g clip-path="url(#clip0_653_127)">
<path d="M22.6068 29.1669C21.642 31.4744 19.8072 33.3092 17.4997 34.2739C15.1921 33.3092 13.3574 31.4744 12.3926 29.1669H15.6884C16.1638 29.88 16.7778 30.4969 17.4997 30.9796C18.2215 30.4983 18.8355 29.88 19.3124 29.1669H22.6068ZM26.2497 21.5908L29.1663 24.8983V27.7085H5.83301V24.8983L8.74967 21.5908V13.1252C8.74967 8.04582 12.4013 3.72332 17.4997 2.12207C22.598 3.72332 26.2497 8.04582 26.2497 13.1252V21.5908ZM25.1851 24.7919L23.333 22.6919V13.1252C23.333 9.74478 21.0434 6.66478 17.4997 5.22103C13.9559 6.66478 11.6663 9.74332 11.6663 13.1252V22.6919L9.81426 24.7919H25.1851ZM17.4997 16.0419C16.7261 16.0419 15.9843 15.7346 15.4373 15.1876C14.8903 14.6406 14.583 13.8987 14.583 13.1252C14.583 12.3516 14.8903 11.6098 15.4373 11.0628C15.9843 10.5158 16.7261 10.2085 17.4997 10.2085C18.2732 10.2085 19.0151 10.5158 19.5621 11.0628C20.1091 11.6098 20.4163 12.3516 20.4163 13.1252C20.4163 13.8987 20.1091 14.6406 19.5621 15.1876C19.0151 15.7346 18.2732 16.0419 17.4997 16.0419Z" fill="#1F2528"/>
</g>
<defs>
<clipPath id="clip0_653_127">
<rect width="35" height="35" fill="white"/>
</clipPath>
</defs>
</svg>
