<svg width="35" height="35" viewBox="0 0 35 35" fill="none" xmlns="http://www.w3.org/2000/svg">
<g clip-path="url(#clip0_653_61)">
<path d="M17.5 1.4585L29.4831 4.12141C30.1496 4.27016 30.625 4.86079 30.625 5.54475V20.1091C30.625 23.0345 29.1623 25.7675 26.7283 27.3891L17.5 33.5418L8.27167 27.3891C5.83625 25.766 4.375 23.0345 4.375 20.1106V5.54475C4.375 4.86079 4.85042 4.27016 5.51688 4.12141L17.5 1.4585ZM17.5 4.44662L7.29167 6.71433V20.1091C7.29167 22.0589 8.26583 23.8804 9.88896 24.9625L17.5 30.0375L25.111 24.9625C26.7342 23.8804 27.7083 22.0604 27.7083 20.1106V6.71433L17.5 4.44662ZM23.9925 11.9906L26.056 14.0527L16.7752 23.3335L10.5875 17.1458L12.6496 15.0837L16.7738 19.2079L23.9925 11.9891V11.9906Z" fill="#1F2528"/>
</g>
<defs>
<clipPath id="clip0_653_61">
<rect width="35" height="35" fill="white"/>
</clipPath>
</defs>
</svg>
