<svg width="35" height="35" viewBox="0 0 35 35" fill="none" xmlns="http://www.w3.org/2000/svg">
<g clip-path="url(#clip0_653_585)">
<path d="M29.2875 22.1667L31.0404 23.2181C31.1485 23.2829 31.238 23.3745 31.3002 23.4842C31.3623 23.5938 31.395 23.7177 31.395 23.8437C31.395 23.9698 31.3623 24.0937 31.3002 24.2033C31.238 24.313 31.1485 24.4046 31.0404 24.4694L18.2508 32.1431C18.024 32.2794 17.7644 32.3514 17.4997 32.3514C17.2351 32.3514 16.9755 32.2794 16.7487 32.1431L3.95912 24.4694C3.85098 24.4046 3.76147 24.313 3.69932 24.2033C3.63716 24.0937 3.60449 23.9698 3.60449 23.8437C3.60449 23.7177 3.63716 23.5938 3.69932 23.4842C3.76147 23.3745 3.85098 23.2829 3.95912 23.2181L5.71204 22.1667L17.4997 29.2396L29.2875 22.1667ZM29.2875 15.3125L31.0404 16.3639C31.1485 16.4287 31.238 16.5204 31.3002 16.63C31.3623 16.7396 31.395 16.8635 31.395 16.9896C31.395 17.1156 31.3623 17.2395 31.3002 17.3491C31.238 17.4588 31.1485 17.5505 31.0404 17.6152L17.4997 25.7396L3.95912 17.6152C3.85098 17.5505 3.76147 17.4588 3.69932 17.3491C3.63716 17.2395 3.60449 17.1156 3.60449 16.9896C3.60449 16.8635 3.63716 16.7396 3.69932 16.63C3.76147 16.5204 3.85098 16.4287 3.95912 16.3639L5.71204 15.3125L17.4997 22.3854L29.2875 15.3125ZM18.2493 1.90895L31.0404 9.5827C31.1485 9.64744 31.238 9.7391 31.3002 9.84875C31.3623 9.9584 31.395 10.0823 31.395 10.2083C31.395 10.3344 31.3623 10.4582 31.3002 10.5679C31.238 10.6775 31.1485 10.7692 31.0404 10.8339L17.4997 18.9583L3.95912 10.8339C3.85098 10.7692 3.76147 10.6775 3.69932 10.5679C3.63716 10.4582 3.60449 10.3344 3.60449 10.2083C3.60449 10.0823 3.63716 9.9584 3.69932 9.84875C3.76147 9.7391 3.85098 9.64744 3.95912 9.5827L16.7487 1.90895C16.9755 1.77268 17.2351 1.70068 17.4997 1.70068C17.7644 1.70068 18.024 1.77268 18.2508 1.90895H18.2493ZM17.4997 4.85916L8.58496 10.2083L17.4997 15.5575L26.4145 10.2083L17.4997 4.85916Z" fill="#1F2528"/>
</g>
<defs>
<clipPath id="clip0_653_585">
<rect width="35" height="35" fill="white"/>
</clipPath>
</defs>
</svg>
