<svg width="65" height="51" viewBox="0 0 65 51" fill="none" xmlns="http://www.w3.org/2000/svg">
<path fill-rule="evenodd" clip-rule="evenodd" d="M42.6809 50.5H11.369V48.8568C16.359 48.8568 17.9807 48.3873 17.9807 45.9225V31.0164C17.9807 31.0164 17.9811 30.8997 17.9816 30.84C17.9915 29.4474 18.0047 27.6127 12.7413 27.6127H4.00889L1.51392 25.2652C1.51392 25.2652 23.7191 28.6691 36.9425 24.3263C50.1658 19.9836 51.7876 15.8756 51.7876 11.0634C51.7876 9.77231 50.2906 4.72536 43.0552 5.07747C33.2 6.01644 22.0974 20.8052 32.0773 22.9179C17.9807 25.8521 9.80155 17.8709 10.7453 11.0634C11.1846 7.89438 12.866 0.852113 23.0954 0.5C27.8358 0.5 32.8757 3.83334 34.0733 6.36855C35.2709 3.83334 40.3107 0.5 45.0511 0.5C55.2805 0.852113 56.9619 7.89438 57.4012 11.0634C58.524 19.162 49.0431 24.5611 33.2 27.6127C26.7227 28.8603 26.5884 29.1385 26.5884 31.0164V48.2699H35.695C54.1578 48.2699 54.1578 41.2277 54.1578 37.6417C54.1578 37.5788 54.1579 37.5145 54.158 37.449C54.1624 35.3595 54.1694 32.0057 49.9163 29.8024C47.2313 28.4114 40.9344 28.9038 38.19 33.3639C37.691 27.378 44.8016 25.8521 48.1699 25.8521C53.035 25.8521 63.5139 27.73 63.5139 37.7066C63.2644 45.8052 53.7835 50.5 42.6809 50.5ZM15.7352 11.0634C16.3878 8.05498 19.0603 4.1385 23.5944 4.1385C28.2101 4.1385 31.0798 7.78618 30.8298 7.89438C24.5924 10.5939 23.3449 19.5141 23.3449 19.5141C23.3449 19.5141 14.4878 16.8146 15.7352 11.0634Z" fill="#800020" stroke="#800020"/>
</svg>
