<svg width="1223" height="664" viewBox="0 0 1223 664" fill="none" xmlns="http://www.w3.org/2000/svg">
<path fill-rule="evenodd" clip-rule="evenodd" d="M269.018 365.122C255.052 353.798 235.5 333.56 235.5 333.56C235.5 333.56 533.806 379.325 711.45 320.936C889.093 262.546 910.879 207.313 910.879 142.611C910.879 125.252 890.769 57.3943 793.568 62.1286C661.173 74.7533 512.02 273.593 646.09 301.999C456.716 341.451 346.837 234.141 359.515 142.611C365.417 100.003 388.005 5.31722 525.427 0.582934C613.884 -2.46456 672.904 79.4876 672.904 79.4876C688.993 45.4008 756.698 0.582934 820.382 0.582934C957.804 5.31722 980.392 100.003 986.294 142.611C1001.38 251.5 874.01 324.092 661.173 365.122C600.609 376.797 395.6 369.476 307.782 366.339C287.654 365.621 273.683 365.122 269.018 365.122ZM532.131 49.5038C471.22 49.5038 435.317 102.162 426.55 142.611C409.791 219.938 528.779 256.234 528.779 256.234C528.779 256.234 545.538 136.299 629.332 100.003C632.69 98.5482 594.138 49.5038 532.131 49.5038Z" fill="#F2F2F2" stroke="#F2F2F2"/>
<path fill-rule="evenodd" clip-rule="evenodd" d="M165.332 572.5H39.5795V565.894C59.6197 565.894 66.1328 564.007 66.1328 554.099V494.176C66.1328 494.176 66.1345 493.707 66.1362 493.467C66.1762 487.869 66.229 480.493 45.0905 480.493H10.0201L0 471.056C0 471.056 89.1791 484.74 142.286 467.282C195.392 449.824 201.905 433.31 201.905 413.965C201.905 408.775 195.893 388.486 166.835 389.901C127.256 393.676 82.666 453.127 122.746 461.62C66.1328 473.416 33.2842 441.331 37.0744 413.965C38.8389 401.225 45.5915 372.915 86.674 371.5C105.712 371.5 125.953 384.9 130.763 395.092C135.572 384.9 155.813 371.5 174.851 371.5C215.934 372.915 222.686 401.225 224.451 413.965C228.96 446.521 190.883 468.225 127.256 480.493C101.242 485.508 100.702 486.627 100.702 494.176V563.535H137.276C211.425 563.535 211.425 535.225 211.425 520.81C211.425 520.557 211.425 520.298 211.426 520.035C211.443 511.635 211.471 498.153 194.39 489.296C183.607 483.704 158.318 485.683 147.296 503.613C145.292 479.549 173.849 473.416 187.376 473.416C206.915 473.416 249 480.965 249 521.07C247.998 553.627 209.922 572.5 165.332 572.5ZM57.1147 413.965C59.7354 401.871 70.4687 386.127 88.6781 386.127C107.215 386.127 118.74 400.79 117.736 401.225C92.6861 412.078 87.676 447.937 87.676 447.937C87.676 447.937 52.1046 437.085 57.1147 413.965Z" fill="#BD9749"/>
<path fill-rule="evenodd" clip-rule="evenodd" d="M326.5 538.75H260V530.75H265.5C276.5 530.75 283.212 523.299 289 513.274C294.788 503.25 354.448 407.158 357.5 405.25H379.5L461.5 517.75C463 520.25 470.5 530.75 479.5 530.75H486.5V538.75H405.5V530.75H413C423 530.75 428 528.75 427.5 523.75C427.282 521.57 426.063 519.754 423.148 515.412C422.738 514.8 422.293 514.138 421.813 513.418C405.136 488.395 361 429.25 361 429.25C361 429.25 304.41 516.405 303 522.75C302 527.25 306.5 530.75 316 530.75H326.5V538.75Z" fill="#BD9749"/>
<path d="M660 538.75H497.5V530.75C519.5 530.75 522.5 531.75 522.5 504.25V429.75C522.5 419.25 521.5 414.75 507 414.75H499L501.5 405.25H582.5V414.75H575C559.5 414.75 554.5 416.75 554.5 429.25V504.25C553.5 534.25 570.5 530.75 580 530.75H608C645.5 529.75 660 516.25 660 504.25H668C666 525.75 660 538.75 660 538.75Z" fill="#BD9749"/>
<path fill-rule="evenodd" clip-rule="evenodd" d="M745.5 538.75H679V530.75H684.5C695.5 530.75 702.212 523.299 708 513.274C713.788 503.25 773.448 407.158 776.5 405.25H798.5L880.5 517.75C882 520.25 889.5 530.75 898.5 530.75H905.5V538.75H824.5V530.75H832C842 530.75 847 528.75 846.5 523.75C846.282 521.57 845.063 519.754 842.148 515.412C841.738 514.8 841.293 514.138 840.813 513.418C824.136 488.395 780 429.25 780 429.25C780 429.25 723.41 516.405 722 522.75C721 527.25 725.5 530.75 735 530.75H745.5V538.75Z" fill="#BD9749"/>
<path fill-rule="evenodd" clip-rule="evenodd" d="M1001.5 539H916.5V531H922.5C936.5 531 943 525.5 943 514V430C943 416 937 413.5 926.5 413.5H918.5V405H1023C1093 405 1094.5 429 1095 438C1096 456 1072 472 1037.5 476.5C1052.58 477.757 1064.02 489.905 1075.95 502.588C1083 510.085 1090.24 517.769 1098.5 523.5C1106.26 528.883 1112 531 1124 531H1127L1125 539H1100C1066.32 539 1054.86 522.502 1043.91 506.737C1033.89 492.312 1024.3 478.5 998.5 478.5H973.5V506C973.5 530.5 981 531 994 531H1001.5V539ZM973.5 470V420C973.5 414.5 976.5 413.5 993 413.5H1021.5C1042.5 413.5 1061 424.5 1061 439C1061 459 1036.5 470 1022 470H973.5Z" fill="#BD9749"/>
<path d="M1223 572.5H1138V564.5H1144C1157 564.5 1164 561 1164 539.5V396C1164 383 1157 378 1147 378H1139.5V371.5H1223V380H1213.5C1200.5 380 1196.5 386 1196.5 397V547.5C1196.5 561.5 1202 564.5 1211.5 564.5H1223V572.5Z" fill="#BD9749"/>
<path d="M512.844 646.5V603.5H488.844V598.5H542.844V603.5H518.844V646.5H512.844ZM551.781 646.5V598.5H598.906V603.5H557.781V619.5H597.188V624.5H557.781V641.5H599.781V646.5H551.781ZM605.781 623.125V621.875C605.781 617.625 605.99 614.062 606.406 611.188C606.823 608.292 607.542 605.938 608.562 604.125C609.583 602.312 610.969 600.927 612.719 599.969C614.49 599.01 616.708 598.365 619.375 598.031C622.042 597.677 625.25 597.5 629 597.5H641.594C645.885 597.5 649.5 597.708 652.438 598.125C655.396 598.521 657.771 599.323 659.562 600.531C661.375 601.719 662.688 603.479 663.5 605.812C664.312 608.125 664.719 611.198 664.719 615.031H658.719C658.719 612.01 658.448 609.667 657.906 608C657.365 606.312 656.448 605.094 655.156 604.344C653.885 603.594 652.146 603.135 649.938 602.969C647.729 602.781 644.948 602.688 641.594 602.688H629C626.021 602.688 623.51 602.781 621.469 602.969C619.427 603.135 617.76 603.542 616.469 604.188C615.198 604.812 614.219 605.812 613.531 607.188C612.865 608.562 612.406 610.438 612.156 612.812C611.906 615.188 611.781 618.208 611.781 621.875V623.125C611.781 626.667 611.906 629.604 612.156 631.938C612.406 634.271 612.865 636.135 613.531 637.531C614.219 638.927 615.198 639.969 616.469 640.656C617.76 641.344 619.427 641.792 621.469 642C623.51 642.208 626.021 642.312 629 642.312H641.594C644.948 642.312 647.729 642.24 649.938 642.094C652.146 641.948 653.885 641.521 655.156 640.812C656.448 640.104 657.365 638.927 657.906 637.281C658.448 635.615 658.719 633.281 658.719 630.281H664.719C664.719 634.115 664.312 637.177 663.5 639.469C662.688 641.76 661.375 643.49 659.562 644.656C657.771 645.802 655.396 646.562 652.438 646.938C649.5 647.312 645.885 647.5 641.594 647.5H629C624.312 647.5 620.458 647.177 617.438 646.531C614.417 645.906 612.052 644.74 610.344 643.031C608.656 641.323 607.469 638.865 606.781 635.656C606.115 632.448 605.781 628.271 605.781 623.125ZM674.969 646.5V598.5H680.969V619.5H724.969V598.5H730.969V646.5H724.969V624.5H680.969V646.5H674.969Z" fill="#F2F2F2"/>
<rect x="260" y="568.5" width="839" height="4" fill="#F2F2F2"/>
</svg>
